<svg width="203.71mm" height="171.67mm" version="1.1" viewBox="0 0 203.71 171.67" xmlns="http://www.w3.org/2000/svg">
 <g transform="translate(110.21 95.629)">
  <path d="m-12.081-93.258-65.542 140.55a2.9466 2.9466 57.5 0 0 2.6706 4.1919h19.47a4.6613 4.6613 147.5 0 0 4.2246-2.6914l9.516-20.407a2.5157 2.5157 147.5 0 1 2.28-1.4525h36.317a3.9714 3.9714 122.5 0 0 3.5993-5.6497l-7.8984-16.938a3.4 3.4 32.5 0 0-3.0815-1.9631h-16.93a1.3763 1.3763 57.5 0 1-1.2474-1.958l32.986-70.738a4.5187 4.5187 90 0 0-3e-7 -3.8194l-8.9203-19.13a4.1063 4.1063 180 0 0-7.4432 1e-6z" style="fill:#000000"/>
  <path d="m12.516-42.382-9.4169 20.195a4.2157 4.2157 90 0 0-3e-7 3.5633l18.694 40.09a21.104 21.104 122.5 0 1-19.127 30.023h-7.7809a3.2454 3.2454 135 0 0-3.2454 3.2454v18.06a3.2454 3.2454 45 0 0 3.2454 3.2454h8.7523a45.021 45.021 122.5 0 0 40.803-64.048l-25.355-54.374a3.6242 3.6242 9.1112e-6 0 0-6.5694-1e-6z" style="fill:#000000"/>
  <path d="m35.442-46.262 7.7456 16.611a4.2751 4.2751 40.051 0 0 2.7608 2.3207l20.07 5.4157a1.5628 1.5628 80.417 0 1 0.4728 2.8003l-12.127 8.2626a2.6032 2.6032 105.37 0 0-0.89353 3.2514l7.7826 16.69a1.4774 1.4774 12.201 0 0 2.3004 0.4974l26.394-22.621a10.154 10.154 78.99 0 0-3.3725-17.335l-50.244-16.888a0.72611 0.72611 131.79 0 0-0.88942 0.99513z" style="fill:#000000"/>
  <path d="m-52.161-46.262-7.7456 16.611a4.2751 4.2751 139.95 0 1-2.7608 2.3207l-20.07 5.4157a1.5628 1.5628 99.583 0 0-0.4728 2.8003l12.127 8.2626a2.6032 2.6032 74.634 0 1 0.89353 3.2514l-7.7826 16.69a1.4774 1.4774 167.8 0 1-2.3004 0.4974l-26.394-22.621a10.154 10.154 101.01 0 1 3.3725-17.335l50.244-16.888a0.72611 0.72611 48.211 0 1 0.88942 0.99513z" style="fill:#000000"/>
 </g>
</svg>
