<?xml version="1.0" encoding="UTF-8" standalone="no"?>
<!-- Created with Inkscape (http://www.inkscape.org/) -->

<svg
   width="578.6488"
   height="481.263"
   viewBox="0 0 153.10083 127.33417"
   version="1.1"
   id="svg1"
   inkscape:version="1.3.2 (091e20e, 2023-11-25, custom)"
   sodipodi:docname="ajweb.svg"
   xmlns:inkscape="http://www.inkscape.org/namespaces/inkscape"
   xmlns:sodipodi="http://sodipodi.sourceforge.net/DTD/sodipodi-0.dtd"
   xmlns="http://www.w3.org/2000/svg"
   xmlns:svg="http://www.w3.org/2000/svg">
  <sodipodi:namedview
     id="namedview1"
     pagecolor="#ffffff"
     bordercolor="#000000"
     borderopacity="0.25"
     inkscape:showpageshadow="2"
     inkscape:pageopacity="0.0"
     inkscape:pagecheckerboard="0"
     inkscape:deskcolor="#d1d1d1"
     inkscape:document-units="mm"
     inkscape:zoom="0.70110129"
     inkscape:cx="288.8313"
     inkscape:cy="126.22998"
     inkscape:window-width="1920"
     inkscape:window-height="1001"
     inkscape:window-x="-9"
     inkscape:window-y="-9"
     inkscape:window-maximized="1"
     inkscape:current-layer="layer1" />
  <defs
     id="defs1" />
  <g
     inkscape:label="Calque 1"
     inkscape:groupmode="layer"
     id="layer1"
     transform="translate(-28.575002,-84.931247)">
    <g
       transform="matrix(0.75157199,0,0,0.7417196,111.40818,155.86498)"
       id="g4"
       style="fill:#999999">
      <path
         d="m -12.081,-93.258 -65.542,140.55 a 2.9466,2.9466 57.5 0 0 2.6706,4.1919 h 19.47 a 4.6613,4.6613 147.5 0 0 4.2246,-2.6914 l 9.516,-20.407 a 2.5157,2.5157 147.5 0 1 2.28,-1.4525 h 36.317 A 3.9714,3.9714 122.5 0 0 0.4545,21.2833 L -7.4439,4.3453 a 3.4,3.4 32.5 0 0 -3.0815,-1.9631 h -16.93 a 1.3763,1.3763 57.5 0 1 -1.2474,-1.958 l 32.986,-70.738 a 4.5187,4.5187 90 0 0 -3e-7,-3.8194 l -8.9203,-19.13 a 4.1063,4.1063 -180 0 0 -7.4431997,10e-7 z"
         style="opacity:1;fill:#999999"
         id="path2"
         inkscape:label="path4" />
      <path
         d="m 12.516,-42.382 -9.4169,20.195 a 4.2157,4.2157 90 0 0 -3e-7,3.5633 L 21.7931,21.4663 A 21.104,21.104 122.5 0 1 2.6660997,51.4893 h -7.7809 a 3.2454,3.2454 135 0 0 -3.2454,3.2454 v 18.06 a 3.2454,3.2454 45 0 0 3.2454,3.2454 h 8.7523 A 45.021,45.021 122.5 0 0 44.4405,11.9921 l -25.355,-54.374 a 3.6242,3.6242 9.1112e-6 0 0 -6.5694,-10e-7 z"
         style="opacity:1;fill:#999999"
         id="path1"
         inkscape:label="path3" />
      <path
         d="m 35.442,-46.262 7.7456,16.611 a 4.2751,4.2751 40.051 0 0 2.7608,2.3207 l 20.07,5.4157 a 1.5628,1.5628 80.417 0 1 0.4728,2.8003 l -12.127,8.2626 a 2.6032,2.6032 105.37 0 0 -0.89353,3.2514 l 7.7826,16.69 a 1.4774,1.4774 12.201 0 0 2.3004,0.4974 l 26.394,-22.621 a 10.154,10.154 78.99 0 0 -3.3725,-17.335 l -50.244,-16.888 a 0.72611,0.72611 131.79 0 0 -0.88942,0.99513 z"
         style="opacity:1;fill:#999999"
         id="path4"
         inkscape:label="path2" />
      <path
         d="m -52.161,-46.262 -7.7456,16.611 a 4.2751,4.2751 139.95 0 1 -2.7608,2.3207 l -20.07,5.4157 a 1.5628,1.5628 99.583 0 0 -0.4728,2.8003 l 12.127,8.2626 a 2.6032,2.6032 74.634 0 1 0.89353,3.2514 l -7.7826,16.69 a 1.4774,1.4774 167.8 0 1 -2.3004,0.4974 l -26.394,-22.621 a 10.154,10.154 101.01 0 1 3.3725,-17.335 l 50.244,-16.888 a 0.72611,0.72611 48.211 0 1 0.88942,0.99513 z"
         style="opacity:1;fill:#999999"
         id="path3"
         inkscape:label="path1" />
    </g>
    <path
       style="fill:#999999;stroke-width:0.264583"
       d="m 51.111324,211.20885 c -0.519972,-0.52943 -0.502552,-1.24647 0.191098,-7.86527 0.364948,-3.48241 0.709192,-5.75704 0.931111,-6.15251 0.399622,-0.7121 1.275019,-1.15139 2.294467,-1.15139 1.203028,0 1.270307,0.44551 0.721564,4.77809 -0.270561,2.1363 -0.529392,4.10625 -0.575157,4.37763 -0.04577,0.27139 -0.05259,0.49343 -0.01524,0.49343 0.03743,0 1.304147,-1.85341 2.814913,-4.11869 3.231528,-4.84545 3.707063,-5.33273 5.345485,-5.47781 1.074923,-0.0952 1.213715,-0.0529 1.597438,0.48676 0.392268,0.55165 0.399862,0.86066 0.114067,4.64113 -0.168399,2.22756 -0.253693,4.09848 -0.189555,4.15756 0.06414,0.0591 1.224211,-1.69706 2.577954,-3.9026 2.724076,-4.43802 3.586528,-5.4355 4.699693,-5.4355 0.77002,0 1.468715,0.48207 1.468715,1.01338 0,0.47702 -0.405762,1.15314 -4.539554,7.56428 -2.117362,3.28383 -4.089291,6.08923 -4.508761,6.41448 -0.512546,0.39743 -1.018712,0.57703 -1.619713,0.5747 -1.876261,-0.007 -1.966193,-0.32874 -1.557174,-5.56831 0.18746,-2.40107 0.306022,-4.46172 0.263496,-4.57928 -0.0425,-0.11753 -1.438394,1.79761 -3.101946,4.2559 -1.663525,2.4583 -3.158133,4.62217 -3.321341,4.80862 -0.955932,1.09225 -2.839093,1.45161 -3.59157,0.6854 z m 19.49473,-0.16287 c -0.205687,-0.18955 -0.373967,-0.51711 -0.373967,-0.72793 0,-0.44029 4.107211,-11.56676 4.681156,-12.68129 0.662832,-1.28714 1.120116,-1.37779 6.951205,-1.37779 4.304382,0 5.292913,0.0576 5.583253,0.32509 0.427493,0.39394 0.277133,1.04175 -0.366683,1.57957 -0.410094,0.3426 -1.057955,0.41325 -4.655286,0.50762 l -4.178916,0.10965 -0.659236,1.80922 -0.659212,1.80922 h 3.624768 c 3.753974,0 4.195929,0.0981 4.195929,0.93102 0,0.22259 -0.262874,0.64693 -0.58415,0.943 -0.571375,0.52652 -0.667043,0.53827 -4.381418,0.53827 h -3.797281 l -0.718354,1.97368 -0.718328,1.97369 h 3.925485 c 2.250847,0 4.12187,0.0969 4.385818,0.22701 0.660784,0.32589 0.567685,1.02359 -0.235318,1.76355 l -0.69565,0.64104 h -5.474923 c -4.659878,0 -5.530588,-0.0513 -5.848892,-0.34462 z m 15.486356,0.0161 c -0.215281,-0.19839 -0.391409,-0.53319 -0.391409,-0.74401 0,-0.44027 4.107209,-11.56674 4.681154,-12.6813 0.639913,-1.24261 1.217094,-1.37837 5.837775,-1.37295 4.73566,0.006 5.80637,0.25882 6.36703,1.50612 0.72202,1.60623 -0.29807,3.92157 -2.21137,5.01925 l -1.000189,0.5738 0.837749,0.70779 c 0.7451,0.62947 0.83558,0.82481 0.81802,1.76599 -0.036,1.92939 -1.678973,3.94538 -4.025965,4.93995 -1.089583,0.46173 -1.58328,0.51023 -5.85565,0.57515 -4.078986,0.062 -4.714922,0.0254 -5.057145,-0.28979 z m 9.54037,-2.59205 c 1.322758,-0.64698 1.978641,-2.57418 1.103743,-3.24326 -0.25124,-0.19214 -1.246462,-0.32578 -2.827623,-0.3797 l -2.439924,-0.0832 -0.658048,1.83311 c -0.361923,1.00822 -0.712237,1.96824 -0.778465,2.13336 -0.186055,0.46387 4.571894,0.24273 5.600317,-0.26027 z m 1.028967,-6.28981 c 1.044628,-0.26741 2.072359,-1.22256 2.263603,-2.10372 0.226465,-1.04341 -0.280154,-1.26537 -2.925363,-1.28159 l -2.277499,-0.014 -0.662617,1.8092 -0.662594,1.80922 h 1.709008 c 0.939961,0 2.08992,-0.0987 2.555462,-0.21791 z"
       id="path6" />
  </g>
</svg>
