<?xml version="1.0" encoding="UTF-8" standalone="no"?>
<svg
   width="203.71mm"
   height="171.67mm"
   version="1.1"
   viewBox="0 0 203.71 171.67"
   id="svg4"
   sodipodi:docname="ajweb.svg"
   inkscape:version="1.3.2 (091e20e, 2023-11-25, custom)"
   xmlns:inkscape="http://www.inkscape.org/namespaces/inkscape"
   xmlns:sodipodi="http://sodipodi.sourceforge.net/DTD/sodipodi-0.dtd"
   xmlns="http://www.w3.org/2000/svg"
   xmlns:svg="http://www.w3.org/2000/svg">
  <defs
     id="defs4" />
  <sodipodi:namedview
     id="namedview4"
     pagecolor="#ffffff"
     bordercolor="#000000"
     borderopacity="0.25"
     inkscape:showpageshadow="2"
     inkscape:pageopacity="0.0"
     inkscape:pagecheckerboard="0"
     inkscape:deskcolor="#d1d1d1"
     inkscape:document-units="mm"
     inkscape:zoom="1.1858258"
     inkscape:cx="384.54215"
     inkscape:cy="323.40332"
     inkscape:window-width="1920"
     inkscape:window-height="1001"
     inkscape:window-x="-9"
     inkscape:window-y="-9"
     inkscape:window-maximized="1"
     inkscape:current-layer="svg4" />
  <g
     transform="translate(110.21 95.629)"
     id="g4"
     style="stroke-linejoin:round;fill:#000000;stroke:#ffffff;stroke-opacity:1">
    <path
       d="m-12.081-93.258-65.542 140.55a2.9466 2.9466 57.5 0 0 2.6706 4.1919h19.47a4.6613 4.6613 147.5 0 0 4.2246-2.6914l9.516-20.407a2.5157 2.5157 147.5 0 1 2.28-1.4525h36.317a3.9714 3.9714 122.5 0 0 3.5993-5.6497l-7.8984-16.938a3.4 3.4 32.5 0 0-3.0815-1.9631h-16.93a1.3763 1.3763 57.5 0 1-1.2474-1.958l32.986-70.738a4.5187 4.5187 90 0 0-3e-7 -3.8194l-8.9203-19.13a4.1063 4.1063 180 0 0-7.4432 1e-6z"
       style="fill:#000000;stroke-linejoin:round;stroke:#ffffff;stroke-opacity:1"
       id="path1" />
    <path
       d="m12.516-42.382-9.4169 20.195a4.2157 4.2157 90 0 0-3e-7 3.5633l18.694 40.09a21.104 21.104 122.5 0 1-19.127 30.023h-7.7809a3.2454 3.2454 135 0 0-3.2454 3.2454v18.06a3.2454 3.2454 45 0 0 3.2454 3.2454h8.7523a45.021 45.021 122.5 0 0 40.803-64.048l-25.355-54.374a3.6242 3.6242 9.1112e-6 0 0-6.5694-1e-6z"
       style="fill:#000000;stroke-linejoin:round;stroke:#ffffff;stroke-opacity:1"
       id="path2" />
    <path
       d="m35.442-46.262 7.7456 16.611a4.2751 4.2751 40.051 0 0 2.7608 2.3207l20.07 5.4157a1.5628 1.5628 80.417 0 1 0.4728 2.8003l-12.127 8.2626a2.6032 2.6032 105.37 0 0-0.89353 3.2514l7.7826 16.69a1.4774 1.4774 12.201 0 0 2.3004 0.4974l26.394-22.621a10.154 10.154 78.99 0 0-3.3725-17.335l-50.244-16.888a0.72611 0.72611 131.79 0 0-0.88942 0.99513z"
       style="fill:#000000;stroke-linejoin:round;stroke:#ffffff;stroke-opacity:1"
       id="path3" />
    <path
       d="m-52.161-46.262-7.7456 16.611a4.2751 4.2751 139.95 0 1-2.7608 2.3207l-20.07 5.4157a1.5628 1.5628 99.583 0 0-0.4728 2.8003l12.127 8.2626a2.6032 2.6032 74.634 0 1 0.89353 3.2514l-7.7826 16.69a1.4774 1.4774 167.8 0 1-2.3004 0.4974l-26.394-22.621a10.154 10.154 101.01 0 1 3.3725-17.335l50.244-16.888a0.72611 0.72611 48.211 0 1 0.88942 0.99513z"
       style="fill:#000000;stroke-linejoin:round;stroke:#ffffff;stroke-opacity:1"
       id="path4" />
  </g>
  <path
     style="fill:#000000;stroke-width:0.309714;stroke:#ffffff;stroke-opacity:1;stroke-linejoin:round"
     d="m 30.228414,169.8938 c -0.700609,-0.72218 -0.677133,-1.70026 0.257506,-10.72866 0.491747,-4.7502 0.955591,-7.85292 1.254619,-8.39235 0.538467,-0.97135 1.718033,-1.57056 3.091682,-1.57056 1.621013,0 1.711669,0.60768 0.972267,6.51755 -0.364585,2.91406 -0.713341,5.60117 -0.77501,5.97134 -0.06168,0.37018 -0.07085,0.67305 -0.02042,0.67305 0.05044,0 1.757267,-2.52814 3.792941,-5.6181 4.354313,-6.60945 4.995062,-7.27414 7.202735,-7.47203 1.448408,-0.12983 1.635439,-0.0722 2.152482,0.66398 0.528543,0.7525 0.538775,1.17399 0.153696,6.33074 -0.226903,3.03852 -0.341843,5.59055 -0.255424,5.67115 0.08642,0.0806 1.649556,-2.3149 3.473638,-5.32336 3.670472,-6.0537 4.832565,-7.41432 6.332504,-7.41432 1.037552,0 1.978988,0.65759 1.978988,1.38232 0,0.65067 -0.546741,1.57294 -6.116791,10.31806 -2.853025,4.47933 -5.51009,8.30607 -6.075295,8.74971 -0.69063,0.5421 -1.372656,0.78708 -2.182466,0.78394 -2.528177,-0.0103 -2.649342,-0.44844 -2.098198,-7.59552 0.252562,-3.27516 0.41233,-6.08603 0.355038,-6.24635 -0.05728,-0.16035 -1.938157,2.45204 -4.179692,5.80528 -2.241538,3.35323 -4.255436,6.30488 -4.475326,6.55923 -1.288086,1.48986 -3.825529,1.98005 -4.839469,0.9349 z m 26.268078,-0.22217 c -0.277152,-0.25854 -0.50391,-0.70535 -0.50391,-0.99294 0,-0.60057 5.534254,-15.77767 6.30761,-17.29797 0.893124,-1.75574 1.509292,-1.87937 9.366351,-1.87937 5.799934,0 7.131898,0.0785 7.523124,0.44345 0.576016,0.53736 0.373411,1.42099 -0.494087,2.15462 -0.552577,0.4673 -1.425541,0.56367 -6.272748,0.69242 l -5.63084,0.14958 -0.888269,2.46786 -0.888272,2.46786 h 4.884175 c 5.058275,0 5.65378,0.13376 5.65378,1.26998 0,0.30361 -0.354199,0.88245 -0.787107,1.28628 -0.769909,0.7182 -0.898802,0.73424 -5.903726,0.73424 h -5.116632 l -0.967923,2.69222 -0.96792,2.69222 h 5.289386 c 3.032877,0 5.553998,0.1321 5.909642,0.30965 0.89038,0.44452 0.764927,1.39623 -0.317079,2.40557 l -0.937344,0.87441 h -7.377152 c -6.278943,0 -7.452168,-0.07 -7.881059,-0.47008 z m 20.867004,0.022 c -0.290075,-0.27059 -0.527418,-0.72728 -0.527418,-1.01486 0,-0.60057 5.534232,-15.77766 6.307595,-17.29797 0.86225,-1.695 1.639965,-1.88019 7.866076,-1.8728 6.381029,0.008 7.823755,0.35305 8.57922,2.05444 0.972881,2.191 -0.40164,5.34923 -2.979687,6.84651 l -1.347708,0.78274 1.128814,0.96543 c 1.003989,0.85863 1.125902,1.1251 1.102233,2.40891 -0.04849,2.63181 -2.262315,5.38172 -5.424754,6.73836 -1.468154,0.62983 -2.133384,0.69597 -7.890159,0.78453 -5.496211,0.0847 -6.353103,0.0348 -6.814212,-0.39528 z m 12.855098,-3.53568 c 1.782349,-0.88251 2.66611,-3.51132 1.487232,-4.424 -0.338531,-0.26208 -1.679535,-0.44437 -3.810059,-0.51794 l -3.287661,-0.11354 -0.886683,2.50048 c -0.487676,1.37528 -0.959692,2.68478 -1.048941,2.91004 -0.250699,0.63272 6.160374,0.33108 7.546112,-0.35504 z m 1.386479,-8.57964 c 1.40758,-0.36476 2.792385,-1.66763 3.050076,-2.86959 0.305152,-1.42329 -0.377495,-1.72604 -3.941763,-1.74818 l -3.068802,-0.0191 -0.892841,2.46786 -0.892802,2.46788 2.302793,-0.002 c 1.266542,-9e-4 2.816044,-0.13468 3.443339,-0.29724 z"
     id="path1-0" />
</svg>
