<?xml version="1.0" encoding="UTF-8" standalone="no"?>
<!-- Created with Inkscape (http://www.inkscape.org/) -->

<svg class=" h-1/3 lg:h-screen"
   version="1.1"
   id="svg1"
   width="1920"
   height="720"
   viewBox="0 0 1920 720"
   sodipodi:docname="logo3.svg"
   inkscape:version="1.3.2 (091e20e, 2023-11-25, custom)"
   xmlns:inkscape="http://www.inkscape.org/namespaces/inkscape"
   xmlns:sodipodi="http://sodipodi.sourceforge.net/DTD/sodipodi-0.dtd"
   xmlns="http://www.w3.org/2000/svg"
   xmlns:svg="http://www.w3.org/2000/svg">
  <defs
     id="defs1">
    <rect
       x="340.64398"
       y="427.6855"
       width="18.267973"
       height="82.743174"
       id="rect6" />
    <rect
       x="79.519414"
       y="507.20491"
       width="629.70778"
       height="106.38408"
       id="rect5" />
    <rect
       x="122.50288"
       y="769.40406"
       width="1031.6032"
       height="427.6855"
       id="rect4" />
    <rect
       x="204.17147"
       y="451.3264"
       width="434.13302"
       height="251.45328"
       id="rect2" />
    <rect
       x="253.60246"
       y="498.60822"
       width="638.30448"
       height="212.76816"
       id="rect1" />
    <clipPath
       clipPathUnits="userSpaceOnUse"
       id="clipPath6">
      <g
         inkscape:label="Clip"
         id="use6">
        <text
           xml:space="preserve"
           id="text6"
           style="font-style:italic;font-variant:normal;font-weight:600;font-stretch:normal;font-size:64px;font-family:'Lucida Sans';-inkscape-font-specification:'Lucida Sans, Semi-Bold Italic';font-variant-ligatures:normal;font-variant-caps:normal;font-variant-numeric:normal;font-variant-east-asian:normal;white-space:pre;shape-inside:url(#rect5);fill:#000000;stroke-width:0.997795"
           transform="translate(0,-4.999999)"><tspan
             x="79.519531"
             y="565.75835"
             id="tspan1">AUBREJAT JEREMY</tspan></text>
      </g>
    </clipPath>
  </defs>
  <sodipodi:namedview
     id="namedview1"
     pagecolor="#ffffff"
     bordercolor="#000000"
     borderopacity="0.25"
     inkscape:showpageshadow="2"
     inkscape:pageopacity="0.0"
     inkscape:pagecheckerboard="0"
     inkscape:deskcolor="#d1d1d1"
     showgrid="false"
     inkscape:zoom="0.65802675"
     inkscape:cx="905.73825"
     inkscape:cy="278.86404"
     inkscape:window-width="1920"
     inkscape:window-height="1001"
     inkscape:window-x="-9"
     inkscape:window-y="-9"
     inkscape:window-maximized="1"
     inkscape:current-layer="g1"
     showguides="true">
    <sodipodi:guide
       position="130.69377,1224.5388"
       orientation="0,-1"
       id="guide1"
       inkscape:locked="false" />
  </sodipodi:namedview>
  <g
     inkscape:groupmode="layer"
     inkscape:label="Image"
     id="g1">
    <g
       transform="matrix(2.8405881,0,0,2.8033497,983.7504,323.096)"
       id="g4">
      <path
         d="m -12.081,-93.258 -65.542,140.55 a 2.9466,2.9466 57.5 0 0 2.6706,4.1919 h 19.47 a 4.6613,4.6613 147.5 0 0 4.2246,-2.6914 l 9.516,-20.407 a 2.5157,2.5157 147.5 0 1 2.28,-1.4525 h 36.317 A 3.9714,3.9714 122.5 0 0 0.4545,21.2833 L -7.4439,4.3453 a 3.4,3.4 32.5 0 0 -3.0815,-1.9631 h -16.93 a 1.3763,1.3763 57.5 0 1 -1.2474,-1.958 l 32.986,-70.738 a 4.5187,4.5187 90 0 0 -3e-7,-3.8194 l -8.9203,-19.13 a 4.1063,4.1063 -180 0 0 -7.4431997,10e-7 z"
         style="fill:#E1E1E1; opacity:0;"
         id="path2"
         inkscape:label="path4" />
      <path
         d="m 12.516,-42.382 -9.4169,20.195 a 4.2157,4.2157 90 0 0 -3e-7,3.5633 L 21.7931,21.4663 A 21.104,21.104 122.5 0 1 2.6660997,51.4893 h -7.7809 a 3.2454,3.2454 135 0 0 -3.2454,3.2454 v 18.06 a 3.2454,3.2454 45 0 0 3.2454,3.2454 h 8.7523 A 45.021,45.021 122.5 0 0 44.4405,11.9921 l -25.355,-54.374 a 3.6242,3.6242 9.1112e-6 0 0 -6.5694,-10e-7 z"
         style="fill:#E1E1E1; opacity:0;"
         id="path1"
         inkscape:label="path3" />
      <path
         d="m 35.442,-46.262 7.7456,16.611 a 4.2751,4.2751 40.051 0 0 2.7608,2.3207 l 20.07,5.4157 a 1.5628,1.5628 80.417 0 1 0.4728,2.8003 l -12.127,8.2626 a 2.6032,2.6032 105.37 0 0 -0.89353,3.2514 l 7.7826,16.69 a 1.4774,1.4774 12.201 0 0 2.3004,0.4974 l 26.394,-22.621 a 10.154,10.154 78.99 0 0 -3.3725,-17.335 l -50.244,-16.888 a 0.72611,0.72611 131.79 0 0 -0.88942,0.99513 z"
         style="fill:#E1E1E1; opacity:0;"
         id="path4"
         inkscape:label="path2" />
      <path
         d="m -52.161,-46.262 -7.7456,16.611 a 4.2751,4.2751 139.95 0 1 -2.7608,2.3207 l -20.07,5.4157 a 1.5628,1.5628 99.583 0 0 -0.4728,2.8003 l 12.127,8.2626 a 2.6032,2.6032 74.634 0 1 0.89353,3.2514 l -7.7826,16.69 a 1.4774,1.4774 167.8 0 1 -2.3004,0.4974 l -26.394,-22.621 a 10.154,10.154 101.01 0 1 3.3725,-17.335 l 50.244,-16.888 a 0.72611,0.72611 48.211 0 1 0.88942,0.99513 z"
         style="fill:#E1E1E1; opacity:0;"
         id="path3"
         inkscape:label="path1" />
    </g>
    <g
       id="g5"
       transform="matrix(0.49947202,0,0,0.62843793,473.67072,286.24216)">
      <path
         
         d="m 306.86841,618.09453 c -2.33229,-1.88858 -2.36114,-2.16306 -3.25267,-30.95036 -0.67721,-21.86687 -0.60684,-29.75145 0.28476,-31.90395 2.2332,-5.39143 11.16721,-8.2722 14.22706,-4.58751 1.04193,1.2547 1.49285,7.25906 1.87244,24.93277 l 0.5,23.28005 16.31461,-23.80169 c 10.04755,-14.65856 17.26821,-24.23617 18.79705,-24.93276 3.47398,-1.58285 6.96823,-1.40834 8.81691,0.44035 3.38515,3.38515 3.77817,2.70671 -23.68999,40.89484 -10.17551,14.1467 -18.63078,24.90196 -20.63646,26.25 -4.21488,2.83283 -9.99829,2.99814 -13.23371,0.37826 z m 189.88593,0.30682 c -11.69462,-3.59622 -16.19379,-14.61548 -12.21092,-29.90673 4.14771,-15.92416 14.28732,-28.64826 28.0755,-35.23166 7.63385,-3.64491 8.22616,-3.76296 18.88108,-3.76296 12.27163,0 16.84872,1.56042 21.78508,7.42696 10.40497,12.36559 -0.60356,43.15993 -20.02868,56.0266 -9.81667,6.50229 -25.4739,8.83907 -36.50206,5.44779 z m 22.187,-11.97657 c 9.99322,-2.96767 18.99482,-15.16669 21.35391,-28.93892 0.91593,-5.34719 0.80634,-6.60486 -0.87401,-10.03051 -5.18689,-10.57429 -22.76385,-7.32401 -31.85615,5.89075 -7.60679,11.0557 -9.86716,24.76459 -5.03096,30.5121 3.62829,4.31196 8.1487,5.01909 16.40721,2.56658 z M 557.2,618.8 c -0.66,-0.66 -1.2,-2.35579 -1.2,-3.76842 0,-2.59438 16.72428,-52.54095 19.67537,-58.7599 2.64253,-5.56873 5.24247,-6.27444 23.02497,-6.24972 13.35452,0.0186 16.44712,0.31592 19.98334,1.92142 7.85624,3.56685 9.34673,12.14287 3.95845,22.77614 -3.28443,6.48151 -7.955,10.98064 -14.64213,14.10468 -4.6636,2.1787 -7.28054,2.63407 -17.20843,2.99439 l -11.70843,0.42495 -2.68171,8.12823 c -3.90894,11.84799 -6.06788,15.99998 -9.31788,17.9198 -3.36205,1.98602 -8.15919,2.23279 -9.88355,0.50843 z m 44.63703,-40.21572 c 3.95523,-2.04533 6.19802,-5.42673 6.85672,-10.33767 0.74345,-5.54286 -1.09682,-6.67419 -10.92151,-6.71411 l -7.9987,-0.0325 -3.35235,9.5 c -1.8438,5.225 -3.36785,9.6768 -3.38678,9.89289 -0.095,1.08415 16.0829,-0.90219 18.80262,-2.30861 z M 622.2,618.8 c -0.66,-0.66 -1.2,-2.35579 -1.2,-3.76842 0,-2.59438 16.72428,-52.54095 19.67537,-58.7599 2.64253,-5.56873 5.24247,-6.27444 23.02497,-6.24972 13.35452,0.0186 16.44712,0.31592 19.98334,1.92142 7.85624,3.56685 9.34673,12.14287 3.95845,22.77614 -3.28443,6.48151 -7.955,10.98064 -14.64213,14.10468 -4.6636,2.1787 -7.28054,2.63407 -17.20843,2.99439 l -11.70843,0.42495 -2.68171,8.12823 c -3.90894,11.84799 -6.06788,15.99998 -9.31788,17.9198 -3.36205,1.98602 -8.15919,2.23279 -9.88355,0.50843 z m 44.63703,-40.21572 c 3.95523,-2.04533 6.19802,-5.42673 6.85672,-10.33767 0.74345,-5.54286 -1.09682,-6.67419 -10.92151,-6.71411 l -7.9987,-0.0325 -3.35235,9.5 c -1.8438,5.225 -3.36785,9.6768 -3.38678,9.89289 -0.095,1.08415 16.0829,-0.90219 18.80262,-2.30861 z m 101.59361,40.4766 c -4.56273,-1.0917 -8.95031,-3.97773 -10.7951,-7.10071 -3.16924,-5.36511 -2.15607,-11.74658 5.53879,-34.88602 5.92504,-17.81735 7.73604,-22.14009 10.4,-24.82415 4.19321,-4.22484 9.52815,-4.54942 12.0295,-0.73188 1.59412,2.43293 1.40847,3.21945 -5.48795,23.25 -7.35155,21.35247 -8.50838,27.69652 -5.58373,30.62117 3.17812,3.17812 11.43623,3.17407 17.66616,-0.009 5.12475,-2.61813 7.9676,-8.09617 15.39335,-29.66225 6.02301,-17.49221 7.8446,-21.70129 10.37296,-23.96836 4.10859,-3.68401 9.31033,-3.7862 11.6413,-0.22869 1.59583,2.43554 1.42145,3.19241 -5.12633,22.25 -9.6021,27.94735 -12.54938,33.42855 -21.16038,39.35307 -6.60955,4.5475 -14.98537,6.89582 -24.1583,6.77326 -4.2135,-0.0563 -9.04212,-0.43284 -10.73027,-0.83676 z M 826.2,618.8 c -2.20515,-2.20515 -1.2535,-6.18054 7.84053,-32.7527 10.59962,-30.97145 11.34104,-32.67614 15.04466,-34.59135 3.35432,-1.73459 35.11128,-2.0847 40.98907,-0.45189 8.71035,2.41967 11.45872,12.02234 6.26464,21.88835 -3.37226,6.40552 -7.97794,10.37129 -15.68044,13.50182 -5.46746,2.22214 -5.59208,2.35587 -3.74941,4.02346 2.97155,2.68921 6.11367,11.01975 6.75767,17.91626 0.57256,6.13135 0.51241,6.33754 -2.61707,8.97082 -3.84063,3.23168 -8.92806,3.59206 -11.44511,0.81074 -0.938,-1.03647 -2.96924,-6.41854 -4.51388,-11.96016 -3.41335,-12.24589 -4.99131,-14.85848 -9.48323,-15.70117 -6.15925,-1.15549 -6.69811,-0.64406 -10.13951,9.62309 -4.41553,13.17343 -6.27762,16.77296 -9.55311,18.46678 -3.41557,1.76626 -8.08156,1.8892 -9.71481,0.25595 z m 49.53307,-42.15681 c 3.78138,-1.96146 6.51705,-6.65964 6.07695,-10.43642 -0.47189,-4.04957 -3.92635,-5.25477 -14.21981,-4.96103 l -8.90979,0.25426 -2.24607,6.6657 c -4.24815,12.60734 -5.08004,11.18153 6.20412,10.63349 6.45996,-0.31374 10.97672,-1.05742 13.0946,-2.156 z m 54.92192,41.52807 c -2.18483,-2.4142 -2.11162,-5.6839 0.80303,-35.86556 1.5335,-15.87975 2.97999,-26.25203 3.9125,-28.05531 1.6792,-3.24722 5.35765,-5.25039 9.64135,-5.25039 5.05509,0 5.3378,2.0315 3.03199,21.78801 -1.13695,9.74159 -2.22454,18.72449 -2.41685,19.96199 -0.19232,1.2375 -0.22096,2.25 -0.0637,2.25 0.15731,0 5.48,-8.45153 11.82821,-18.78118 13.57883,-22.09513 15.57699,-24.31721 22.46157,-24.97873 4.51683,-0.43401 5.10008,-0.24114 6.71247,2.21968 1.64825,2.51556 1.68016,3.92459 0.4793,21.16346 -0.70759,10.15767 -1.06603,18.68897 -0.79654,18.95847 0.26949,0.26949 5.14411,-7.73865 10.83247,-17.79586 C 1008.5271,553.54852 1012.151,549 1016.8286,549 c 3.2355,0 6.1714,2.19833 6.1714,4.62109 0,2.17517 -1.705,5.25828 -19.0751,34.49293 -8.89708,14.97424 -17.18308,27.76688 -18.94566,29.25 -2.15371,1.81223 -4.2806,2.63119 -6.80597,2.62067 -7.88407,-0.0329 -8.26192,-1.49912 -6.54319,-25.39154 0.78761,-10.94876 1.28584,-20.34539 1.10718,-20.88138 -0.17867,-0.536 -6.0441,8.19708 -13.03428,19.40685 -6.99019,11.20976 -13.27049,21.07703 -13.95621,21.92727 -4.01687,4.98058 -11.92983,6.61928 -15.09178,3.12537 z M 1172.75,618.9199 c -0.9876,-0.57523 -1.75,-2.20371 -1.75,-3.73802 0,-2.70218 16.6281,-52.48862 19.6754,-58.9102 2.7413,-5.77688 4.8875,-6.27168 27.2035,-6.27168 16.8287,0 20.226,0.24773 21.5497,1.57143 2.0957,2.09569 1.996,2.82273 -0.839,6.12281 l -2.4103,2.80576 -15.7511,0.5 -15.7512,0.5 -2.7697,8.25 -2.7697,8.25 h 12.2312 c 8.1798,0 12.6287,0.39748 13.4312,1.2 2.0051,2.00506 1.3491,5.53753 -1.4349,7.72742 -2.3535,1.85126 -3.9998,2.07258 -15.4175,2.07258 h -12.7827 l -3.2228,9.75 c -1.7725,5.3625 -4.1179,11.68109 -5.212,14.04131 -2.839,6.12466 -9.1996,8.91299 -13.9801,6.12859 z M 1231.2,618.8 c -2.2051,-2.20515 -1.2535,-6.18054 7.8405,-32.7527 10.5997,-30.97145 11.3411,-32.67614 15.0447,-34.59135 3.3543,-1.73459 35.1113,-2.0847 40.9891,-0.45189 8.7103,2.41967 11.4587,12.02234 6.2646,21.88835 -3.3723,6.40552 -7.9779,10.37129 -15.6804,13.50182 -5.4675,2.22214 -5.5921,2.35587 -3.7495,4.02346 2.9716,2.68921 6.1137,11.01975 6.7577,17.91626 0.5726,6.13135 0.5124,6.33754 -2.6171,8.97082 -3.6207,3.04665 -8.9928,3.60921 -11.4074,1.19457 -0.8254,-0.82537 -2.1651,-3.86287 -2.9772,-6.75 -0.8122,-2.88714 -2.191,-7.78328 -3.0641,-10.88033 -2.3164,-8.21613 -4.2712,-10.20937 -10.0986,-10.29698 l -4.7911,-0.072 -3.2267,9.57727 c -4.448,13.202 -6.3,16.77597 -9.5697,18.46678 -3.4156,1.76626 -8.0816,1.8892 -9.7148,0.25595 z m 49.5331,-42.15681 c 3.7813,-1.96146 6.517,-6.65964 6.0769,-10.43642 -0.4719,-4.04957 -3.9263,-5.25477 -14.2198,-4.96103 l -8.9098,0.25426 -2.246,6.6657 c -4.2482,12.60734 -5.0801,11.18153 6.2041,10.63349 6.4599,-0.31374 10.9767,-1.05742 13.0946,-2.156 z m 204.7249,40.93301 c -1.4424,-2.20132 -1.4449,-2.70088 -0.027,-5.44227 1.414,-2.73437 35.5007,-49.44001 41.3325,-56.63393 3.2574,-4.01816 7.941,-6.50333 12.2212,-6.48469 7.3699,0.0321 7.831,1.36893 9.5221,27.60636 2.3764,36.87153 2.2055,38.92455 -3.4865,41.86798 -7.3239,3.78737 -11.02,0.69766 -11.02,-9.21216 V 603 l -13.25,0.002 -13.25,0.002 -3.3408,4.90178 c -6.2133,9.11644 -9.5425,12.09435 -13.521,12.09435 -2.698,0 -3.9874,-0.60332 -5.1802,-2.4238 z M 1533,579.31939 v -12.6806 l -8.5,12.24499 c -4.675,6.73475 -8.5,12.44102 -8.5,12.68061 0,0.23958 3.825,0.43561 8.5,0.43561 h 8.5 z M 1561.2,618.8 c -0.66,-0.66 -1.2,-2.39132 -1.2,-3.84739 0,-3.19009 18.4209,-57.13918 20.6955,-60.61063 3.1861,-4.86267 11.4873,-7.01631 14.692,-3.81166 1.2874,1.28748 10.9929,29.84903 13.1605,38.72913 0.3705,1.5177 1.0354,2.98308 1.4776,3.2564 0.4423,0.27333 3.1507,-6.59343 6.0188,-15.25945 8.2414,-24.90204 10.3107,-28.2564 17.4312,-28.2564 2.586,0 5.5244,2.36291 5.5244,4.44248 0,2.17775 -19.9729,59.58655 -21.5883,62.05192 -3.3912,5.17563 -12.275,5.94175 -15.6856,1.35269 -1.0844,-1.4591 -4.5521,-11.33704 -7.7061,-21.95099 -4.6183,-15.54176 -5.9283,-18.91834 -6.7301,-17.3471 -0.5476,1.07305 -3.6101,9.75216 -6.8056,19.28691 -6.4626,19.28325 -8.9524,23.16409 -14.8612,23.16409 -1.7727,0 -3.7631,-0.54 -4.4231,-1.2 z m 89.6535,-0.31244 c -16.8702,-5.40151 -16.8841,-30.82308 -0.028,-52.14712 10.0597,-12.72646 30.418,-20.28588 44.0798,-16.36771 14.1296,4.05231 19.027,21.65029 7.2757,26.14367 -4.5279,1.73135 -7.0011,0.12867 -8.8494,-5.73458 -2.3391,-7.42062 -4.2182,-8.88942 -11.3205,-8.84877 -4.6211,0.0264 -6.7468,0.62965 -10.6426,3.01991 -9.046,5.5502 -16.7619,20.29599 -16.8357,32.17431 -0.027,4.40482 0.4042,5.66354 2.7426,8 2.4014,2.39941 3.5511,2.76849 8.5393,2.74126 7.2794,-0.0398 13.6868,-3.55438 18.371,-10.07704 5.0627,-7.04962 10.1378,-9.06841 13.7405,-5.4657 2.3445,2.34446 1.8449,4.9768 -2.0247,10.66909 -3.9943,5.87559 -9.3528,10.25363 -16.8364,13.75563 -5.3948,2.52452 -8.0109,3.10525 -15.0474,3.34028 -5.5265,0.18459 -10.1489,-0.23792 -13.1638,-1.20323 z M 152.65023,617.50737 C 151.7426,616.59975 151,615.08094 151,614.13225 c 0,-2.46604 18.79573,-56.89086 20.59654,-59.63925 2.66611,-4.06899 6.0587,-4.69226 23.57163,-4.33043 14.19553,0.29329 16.85505,0.60999 20.33183,2.42115 11.36579,5.92078 12.00002,21.91276 1.65951,41.84419 -4.83908,9.32739 -12.31702,16.80523 -20.84446,20.84419 -6.75787,3.20082 -6.96271,3.23066 -24.41482,3.5567 -15.30824,0.28599 -17.81464,0.11394 -19.25,-1.32143 z M 187.5,605.89812 c 10.88414,-2.96791 22.4183,-23.85919 20.07348,-36.35816 -0.96929,-5.16676 -3.99481,-6.70285 -14.3411,-7.28118 L 184.5,561.77067 176.78261,584.38534 169.06523,607 l 7.21738,-0.006 c 3.96957,-0.003 9.01739,-0.4964 11.21739,-1.0963 z m 37.07143,11.53045 C 223.70714,616.56429 223,615.07057 223,614.1092 c 0,-2.00766 17.25845,-52.74423 19.67015,-57.82652 2.7852,-5.86937 4.70671,-6.28268 29.20876,-6.28268 18.08696,0 22.2407,0.26246 23.46064,1.48241 1.79639,1.79639 1.16452,4.75032 -1.54072,7.20283 -1.7232,1.5622 -4.44554,1.88434 -19.56144,2.31476 l -17.55964,0.5 -2.77007,8.25 -2.77007,8.25 h 15.2312 C 282.14295,578 284,578.44716 284,582.24545 c 0,1.015 -1.10455,2.95 -2.45455,4.3 C 279.1445,588.94641 278.74252,589 263.1348,589 h -15.95611 l -3.01844,9 -3.01845,9 h 16.49484 c 9.45797,0 17.32002,0.44162 18.4291,1.03518 2.7766,1.48599 2.3854,4.66753 -0.98882,8.04174 L 272.15385,619 h -23.0055 c -19.58075,0 -23.23943,-0.23393 -24.57692,-1.57143 z m 132,0 C 355.70714,616.56429 355,615.07057 355,614.1092 c 0,-2.00766 17.25845,-52.74423 19.67015,-57.82652 2.7852,-5.86937 4.70671,-6.28268 29.20876,-6.28268 18.08696,0 22.2407,0.26246 23.46064,1.48241 1.79639,1.79639 1.16452,4.75032 -1.54072,7.20283 -1.7232,1.5622 -4.44554,1.88434 -19.56144,2.31476 l -17.55964,0.5 -2.77007,8.25 -2.77007,8.25 h 15.2312 C 414.14295,578 416,578.44716 416,582.24545 c 0,1.015 -1.10455,2.95 -2.45455,4.3 C 411.1445,588.94641 410.74252,589 395.1348,589 h -15.95611 l -3.01844,9 -3.01845,9 h 16.49484 c 9.45797,0 17.32002,0.44162 18.4291,1.03518 2.7766,1.48599 2.3854,4.66753 -0.98882,8.04174 L 404.15385,619 h -23.0055 c -19.58075,0 -23.23943,-0.23393 -24.57692,-1.57143 z m 65,0 C 420.70714,616.56429 420,615.04894 420,614.06114 c 0,-0.9878 4.47699,-14.79315 9.94887,-30.67857 8.42801,-24.46735 10.41771,-29.30296 13.01578,-31.63257 4.0981,-3.67464 9.31058,-3.78578 11.62866,-0.24794 1.58392,2.41738 1.33193,3.39896 -7.44481,29 L 438.06426,607 h 14.53361 c 8.10604,0 15.38905,0.45782 16.46787,1.03518 2.17142,1.16211 2.49437,4.65245 0.65246,7.05148 -2.69819,3.51429 -5.35772,3.91334 -26.08103,3.91334 -17.29786,0 -20.73941,-0.24509 -22.06574,-1.57143 z m 266,0 C 686.70714,616.56429 686,615.07057 686,614.1092 c 0,-2.00766 17.25845,-52.74423 19.67015,-57.82652 2.7852,-5.86937 4.70671,-6.28268 29.20876,-6.28268 18.08696,0 22.2407,0.26246 23.46064,1.48241 1.79639,1.79639 1.16452,4.75032 -1.54072,7.20283 -1.7232,1.5622 -4.44554,1.88434 -19.56144,2.31476 l -17.55964,0.5 -2.77007,8.25 -2.77007,8.25 h 15.2312 C 745.14295,578 747,578.44716 747,582.24545 c 0,1.015 -1.10455,2.95 -2.45455,4.3 C 742.1445,588.94641 741.74252,589 726.1348,589 h -15.95611 l -3.01844,9 -3.01845,9 h 16.49484 c 9.45797,0 17.32002,0.44162 18.4291,1.03518 2.7766,1.48599 2.3854,4.66753 -0.98882,8.04174 L 735.15385,619 h -23.0055 c -19.58075,0 -23.23943,-0.23393 -24.57692,-1.57143 z m 324.99997,0 c -0.8643,-0.86428 -1.5714,-2.358 -1.5714,-3.31937 0,-2.00766 17.2584,-52.74423 19.6701,-57.82652 2.7852,-5.86937 4.7068,-6.28268 29.2088,-6.28268 18.087,0 22.2407,0.26246 23.4607,1.48241 1.7963,1.79639 1.1645,4.75032 -1.5408,7.20283 -1.7232,1.5622 -4.4455,1.88434 -19.5614,2.31476 l -17.5597,0.5 -2.77,8.25 -2.7701,8.25 h 15.2312 c 15.7741,0 17.6312,0.44716 17.6312,4.24545 0,1.015 -1.1045,2.95 -2.4545,4.3 -2.401,2.40096 -2.803,2.45455 -18.4107,2.45455 h -15.9561 l -3.0185,9 -3.0184,9 h 16.4948 c 9.458,0 17.3201,0.44162 18.4291,1.03518 2.7766,1.48599 2.3854,4.66753 -0.9888,8.04174 L 1060.1538,619 h -23.0054 c -19.5808,0 -23.2395,-0.23393 -24.577,-1.57143 z m 65.0733,0.0733 c -0.9046,-0.90461 -1.6447,-2.43132 -1.6447,-3.39269 0,-2.00766 17.2584,-52.74423 19.6701,-57.82652 2.6889,-5.66637 5.1142,-6.28537 24.5302,-6.26072 19.8991,0.0253 24.3982,1.18021 26.7541,6.86791 3.0339,7.32444 -1.2525,17.8823 -9.2921,22.88768 l -4.2028,2.61663 3.5202,3.22742 c 3.1309,2.87043 3.5111,3.76117 3.4373,8.05291 -0.1512,8.79804 -7.055,17.99092 -16.917,22.52614 -4.5784,2.10549 -6.6529,2.32661 -24.6053,2.62267 -17.1398,0.28266 -19.812,0.11649 -21.25,-1.32143 z m 40.0884,-11.81971 c 5.5582,-2.95019 8.3142,-11.73822 4.6379,-14.78925 -1.0557,-0.87611 -5.2376,-1.48554 -11.8816,-1.73148 l -10.2525,-0.37952 -2.7651,8.35903 c -1.5208,4.59747 -2.9928,8.97512 -3.2711,9.72811 -0.7818,2.11517 19.211,1.1068 23.5324,-1.18689 z m 4.3237,-28.68143 c 4.3895,-1.2194 8.708,-5.57483 9.5116,-9.59294 0.9516,-4.758 -1.1772,-5.77012 -12.2923,-5.84411 l -9.57,-0.0637 -2.7843,8.25 -2.7842,8.25 7.1812,-0.006 c 3.9497,-0.003 8.7818,-0.45022 10.738,-0.99367 z m 179.5146,40.42782 c -0.8643,-0.86428 -1.5714,-2.358 -1.5714,-3.31937 0,-2.00766 17.2584,-52.74423 19.6701,-57.82652 2.7852,-5.86937 4.7068,-6.28268 29.2088,-6.28268 18.087,0 22.2407,0.26246 23.4607,1.48241 1.7963,1.79639 1.1645,4.75032 -1.5408,7.20283 -1.7232,1.5622 -4.4455,1.88434 -19.5614,2.31476 l -17.5597,0.5 -2.77,8.25 -2.7701,8.25 h 15.2312 c 15.7741,0 17.6312,0.44716 17.6312,4.24545 0,1.015 -1.1045,2.95 -2.4545,4.3 -2.401,2.40096 -2.803,2.45455 -18.4107,2.45455 h -15.9561 l -3.0185,9 -3.0184,9 h 16.4948 c 9.458,0 17.3201,0.44162 18.4291,1.03518 2.7766,1.48599 2.3854,4.66753 -0.9888,8.04174 L 1349.1538,619 h -23.0054 c -19.5808,0 -23.2395,-0.23393 -24.577,-1.57143 z m 65,0 c -0.8643,-0.86428 -1.5714,-2.358 -1.5714,-3.31937 0,-2.00766 17.2584,-52.74423 19.6701,-57.82652 2.7852,-5.86937 4.7068,-6.28268 29.2088,-6.28268 18.087,0 22.2407,0.26246 23.4607,1.48241 1.7963,1.79639 1.1645,4.75032 -1.5408,7.20283 -1.7232,1.5622 -4.4455,1.88434 -19.5614,2.31476 l -17.5597,0.5 -2.77,8.25 -2.7701,8.25 h 15.2312 c 15.7741,0 17.6312,0.44716 17.6312,4.24545 0,1.015 -1.1045,2.95 -2.4545,4.3 -2.401,2.40096 -2.803,2.45455 -18.4107,2.45455 h -15.9561 l -3.0185,9 -3.0184,9 h 16.4948 c 9.458,0 17.3201,0.44162 18.4291,1.03518 2.7766,1.48599 2.3854,4.66753 -0.9888,8.04174 L 1414.1538,619 h -23.0054 c -19.5808,0 -23.2395,-0.23393 -24.577,-1.57143 z m 65,0 c -0.8643,-0.86428 -1.5714,-2.37963 -1.5714,-3.36743 0,-0.9878 4.477,-14.79315 9.9489,-30.67857 8.428,-24.46735 10.4177,-29.30296 13.0157,-31.63257 4.0981,-3.67464 9.3106,-3.78578 11.6287,-0.24794 1.5839,2.41738 1.3319,3.39896 -7.4448,29 L 1448.0643,607 h 14.5336 c 8.106,0 15.389,0.45782 16.4678,1.03518 2.1715,1.16211 2.4944,4.65245 0.6525,7.05148 -2.6982,3.51429 -5.3577,3.91334 -26.081,3.91334 -17.2979,0 -20.7394,-0.24509 -22.0658,-1.57143 z m 275,0 c -0.8643,-0.86428 -1.5714,-2.358 -1.5714,-3.31937 0,-2.00766 17.2584,-52.74423 19.6701,-57.82652 2.7852,-5.86937 4.7068,-6.28268 29.2088,-6.28268 18.087,0 22.2407,0.26246 23.4607,1.48241 1.7963,1.79639 1.1645,4.75032 -1.5408,7.20283 -1.7232,1.5622 -4.4455,1.88434 -19.5614,2.31476 l -17.5597,0.5 -2.77,8.25 -2.7701,8.25 h 15.2312 c 15.7741,0 17.6312,0.44716 17.6312,4.24545 0,1.015 -1.1045,2.95 -2.4545,4.3 -2.401,2.40096 -2.803,2.45455 -18.4107,2.45455 h -15.9561 l -3.0185,9 -3.0184,9 h 16.4948 c 9.458,0 17.3201,0.44162 18.4291,1.03518 2.7766,1.48599 2.3854,4.66753 -0.9888,8.04174 L 1754.1538,619 h -23.0054 c -19.5808,0 -23.2395,-0.23393 -24.577,-1.57143 z M 459.45797,506.5762 c -1.44236,-2.20132 -1.44486,-2.70088 -0.0272,-5.44227 1.414,-2.73437 35.50065,-49.44001 41.33251,-56.63393 3.25737,-4.01816 7.94097,-6.50333 12.22115,-6.48469 7.36987,0.0321 7.83098,1.36893 9.52206,27.60636 2.37648,36.87153 2.20552,38.92455 -3.48644,41.86798 C 511.69606,511.27702 508,508.18731 508,498.27749 V 492 l -13.25,0.002 -13.25,0.002 -3.3408,4.90178 C 471.9459,506.02209 468.61671,509 464.63818,509 c -2.69795,0 -3.98739,-0.60332 -5.18021,-2.4238 z M 507,468.31939 v -12.6806 l -8.5,12.24499 c -4.675,6.73475 -8.5,12.44102 -8.5,12.68061 0,0.23958 3.825,0.43561 8.5,0.43561 h 8.5 z m 43.43064,39.74149 c -4.56273,-1.0917 -8.95031,-3.97773 -10.7951,-7.10071 -3.16924,-5.36511 -2.15607,-11.74658 5.53879,-34.88602 5.92504,-17.81735 7.73604,-22.14009 10.4,-24.82415 4.19321,-4.22484 9.52815,-4.54942 12.0295,-0.73188 1.59412,2.43293 1.40847,3.21945 -5.48795,23.25 -7.35155,21.35247 -8.50838,27.69652 -5.58373,30.62117 3.17812,3.17812 11.43623,3.17407 17.66616,-0.009 5.12475,-2.61813 7.9676,-8.09617 15.39335,-29.66225 6.02301,-17.49221 7.8446,-21.70129 10.37296,-23.96836 4.10859,-3.68401 9.31033,-3.7862 11.6413,-0.22869 1.59583,2.43554 1.42145,3.19241 -5.12633,22.25 -9.6021,27.94735 -12.54938,33.42855 -21.16038,39.35307 -6.60955,4.5475 -14.98537,6.89582 -24.1583,6.77326 -4.2135,-0.0563 -9.04212,-0.43284 -10.73027,-0.83676 z M 678.2,507.8 c -2.20515,-2.20515 -1.2535,-6.18054 7.84053,-32.7527 10.59962,-30.97145 11.34104,-32.67614 15.04466,-34.59135 3.35432,-1.73459 35.11128,-2.0847 40.98907,-0.45189 8.71035,2.41967 11.45872,12.02234 6.26464,21.88835 -3.37226,6.40552 -7.97794,10.37129 -15.68044,13.50182 -5.46746,2.22214 -5.59208,2.35587 -3.74941,4.02346 2.97155,2.68921 6.11367,11.01975 6.75767,17.91626 0.57256,6.13135 0.51241,6.33754 -2.61707,8.97082 -3.84063,3.23168 -8.92806,3.59206 -11.44511,0.81074 -0.938,-1.03647 -2.96924,-6.41854 -4.51388,-11.96016 -3.41335,-12.24589 -4.99131,-14.85848 -9.48323,-15.70117 -6.15925,-1.15549 -6.69811,-0.64406 -10.13951,9.62309 -4.41553,13.17343 -6.27762,16.77296 -9.55311,18.46678 -3.41557,1.76626 -8.08156,1.8892 -9.71481,0.25595 z m 49.53307,-42.15681 c 3.78138,-1.96146 6.51705,-6.65964 6.07695,-10.43642 -0.47189,-4.04957 -3.92635,-5.25477 -14.21981,-4.96103 l -8.90979,0.25426 -2.24607,6.6657 c -4.24815,12.60734 -5.08004,11.18153 6.20412,10.63349 6.45996,-0.31374 10.97672,-1.05742 13.0946,-2.156 z m 89.67304,41.45363 c -11.51187,-5.22815 -8.35985,-27.16666 3.89094,-27.08151 4.29908,0.0299 5.22073,1.4962 4.94875,7.87326 -0.37834,8.87103 3.37614,11.46867 10.39249,7.19033 4.04784,-2.46825 6.50476,-7.85157 14.41245,-31.5789 5.11962,-15.36161 6.94662,-19.62236 9.54073,-22.25 4.17181,-4.22573 9.50999,-4.55097 12.01236,-0.73188 1.5942,2.43306 1.40449,3.23531 -5.61629,23.75 -8.34091,24.37208 -11.59505,31.1936 -17.45917,36.59897 -8.18073,7.54073 -22.93502,10.40215 -32.12226,6.22973 z m 47.05186,-0.52062 c -1.44236,-2.20132 -1.44486,-2.70088 -0.0272,-5.44227 1.414,-2.73437 35.50065,-49.44001 41.33251,-56.63393 3.25737,-4.01816 7.94097,-6.50333 12.22115,-6.48469 7.36987,0.0321 7.83098,1.36893 9.52206,27.60636 2.37648,36.87153 2.20552,38.92455 -3.48644,41.86798 C 916.69606,511.27702 913,508.18731 913,498.27749 V 492 l -13.25,0.002 -13.25,0.002 -3.3408,4.90178 C 876.9459,506.02209 873.61671,509 869.63818,509 c -2.69795,0 -3.98739,-0.60332 -5.18021,-2.4238 z M 912,468.31939 v -12.6806 l -8.5,12.24499 c -4.675,6.73475 -8.5,12.44102 -8.5,12.68061 0,0.23958 3.825,0.43561 8.5,0.43561 h 8.5 z m 43.75,39.60051 c -0.99261,-0.57814 -1.75,-2.20467 -1.75,-3.75819 0,-1.50641 3.825,-13.88844 8.5,-27.51563 4.675,-13.62719 8.5,-24.97232 8.5,-25.2114 C 971,451.19561 967.37042,451 962.93426,451 c -4.43616,0 -8.93616,-0.46583 -10,-1.03518 -2.7766,-1.48599 -2.3854,-4.66753 0.98882,-8.04174 L 956.84615,439 h 25.64267 c 15.76379,0 26.38788,0.39881 27.57688,1.03518 2.7766,1.48599 2.3854,4.66753 -0.9888,8.04174 -2.8134,2.81343 -3.2734,2.92308 -12.26186,2.92308 h -9.3388 l -7.90431,23.25 c -4.34737,12.7875 -8.78782,25.18109 -9.86766,27.54131 -2.80131,6.12282 -9.16538,8.91786 -13.95427,6.12859 z m 73.6561,-0.82308 C 1017.7737,501.81394 1021.0498,480 1033.4756,480 c 4.1546,0 5.6036,2.47493 4.909,8.38462 -0.4889,4.15966 -0.2679,5.58927 1.0711,6.92826 4.0254,4.02537 11.1239,0.43568 14.7919,-7.48024 1.359,-2.93295 5.3204,-13.88264 8.8031,-24.33264 5.1197,-15.36161 6.9467,-19.62236 9.5408,-22.25 4.1718,-4.22573 9.51,-4.55097 12.0123,-0.73188 1.5942,2.43306 1.4045,3.23531 -5.6163,23.75 -8.3409,24.37208 -11.595,31.1936 -17.4591,36.59897 -8.1808,7.54073 -22.935,10.40215 -32.1223,6.22973 z M 1146.2,507.8 c -2.2051,-2.20515 -1.2535,-6.18054 7.8405,-32.7527 10.5997,-30.97145 11.3411,-32.67614 15.0447,-34.59135 3.3543,-1.73459 35.1113,-2.0847 40.9891,-0.45189 8.7103,2.41967 11.4587,12.02234 6.2646,21.88835 -3.3723,6.40552 -7.9779,10.37129 -15.6804,13.50182 -5.4675,2.22214 -5.5921,2.35587 -3.7495,4.02346 2.9716,2.68921 6.1137,11.01975 6.7577,17.91626 0.5726,6.13135 0.5124,6.33754 -2.6171,8.97082 -3.8406,3.23168 -8.928,3.59206 -11.4451,0.81074 -0.938,-1.03647 -2.9692,-6.41854 -4.5138,-11.96016 -3.4134,-12.24589 -4.9913,-14.85848 -9.4833,-15.70117 -6.1592,-1.15549 -6.6981,-0.64406 -10.1395,9.62309 -4.4155,13.17343 -6.2776,16.77296 -9.5531,18.46678 -3.4156,1.76626 -8.0816,1.8892 -9.7148,0.25595 z m 49.5331,-42.15681 c 3.7813,-1.96146 6.517,-6.65964 6.0769,-10.43642 -0.4719,-4.04957 -3.9263,-5.25477 -14.2198,-4.96103 l -8.9098,0.25426 -2.246,6.6657 c -4.2482,12.60734 -5.0801,11.18153 6.2041,10.63349 6.4599,-0.31374 10.9767,-1.05742 13.0946,-2.156 z M 1281.2,507.8 c -2.2027,-2.20268 -1.2561,-6.1729 7.7362,-32.44778 11.2217,-32.7892 11.2638,-32.88714 14.9354,-34.7858 4.1554,-2.14889 16.4064,-2.14558 18.557,0.005 1.8716,1.87162 1.865,-0.0946 0.071,21.42857 -0.8021,9.625 -1.4677,17.92662 -1.4792,18.44804 -0.011,0.52142 5.1645,-7.57858 11.5021,-18 6.3376,-10.42142 12.6627,-19.96054 14.0558,-21.19804 2.1445,-1.90501 3.6743,-2.25 9.9771,-2.25 6.0582,0 7.8088,0.36463 9.4026,1.95844 2.3808,2.38077 2.7716,0.8968 -9.8852,37.54156 -9.7159,28.13014 -11.0702,30.5 -17.429,30.5 -7.3555,0 -7.3103,-3.03016 0.3737,-25.05125 3.3098,-9.48547 5.8412,-17.42301 5.6252,-17.63897 -0.2159,-0.21595 -5.4422,8.17237 -11.6139,18.64072 -6.1717,10.46834 -12.5626,20.16199 -14.202,21.54143 -3.7739,3.17555 -9.6903,3.42179 -12.3229,0.51286 -1.7358,-1.91809 -1.7387,-2.73307 -0.075,-21.08651 0.9519,-10.50022 1.5235,-19.29861 1.2701,-19.55198 -0.2533,-0.25337 -3.3043,7.99806 -6.7798,18.33651 -7.0193,20.88135 -9.1482,24.2972 -15.1423,24.2972 -1.8573,0 -3.9169,-0.54 -4.5769,-1.2 z m 82,0 c -0.66,-0.66 -1.2,-2.37741 -1.2,-3.81647 0,-1.43906 4.4769,-15.63656 9.9487,-31.55 8.4351,-24.53193 10.4152,-29.35188 13.0157,-31.68353 4.0964,-3.6728 9.3109,-3.78568 11.6265,-0.25167 1.5807,2.41247 1.3179,3.435 -7.6442,29.75 -11.017,32.34878 -12.3175,35.37494 -16.0266,37.29298 -3.4203,1.76869 -8.0859,1.89286 -9.7201,0.25869 z M 608.64475,506.50189 C 607.74014,505.59728 607,504.07057 607,503.1092 c 0,-2.00766 17.25845,-52.74423 19.67015,-57.82652 2.68887,-5.66637 5.11418,-6.28537 24.53019,-6.26072 19.89901,0.0253 24.39812,1.18021 26.75404,6.86791 3.03389,7.32444 -1.25245,17.8823 -9.29207,22.88768 l -4.20282,2.61663 3.52026,3.22742 c 3.13087,2.87043 3.51107,3.76117 3.43729,8.05291 -0.15126,8.79804 -7.05508,17.99092 -16.91704,22.52614 -4.57845,2.10549 -6.65293,2.32661 -24.60525,2.62267 -17.13988,0.28266 -19.81208,0.11649 -21.25,-1.32143 z m 40.08832,-11.81971 c 5.55826,-2.95019 8.31419,-11.73822 4.63792,-14.78925 -1.05564,-0.87611 -5.23763,-1.48554 -11.88157,-1.73148 l -10.25255,-0.37952 -2.76509,8.35903 c -1.5208,4.59747 -2.9928,8.97512 -3.27112,9.72811 -0.78179,2.11517 19.21102,1.1068 23.53241,-1.18689 z m 4.32378,-28.68143 c 4.38947,-1.2194 8.70797,-5.57483 9.51159,-9.59294 0.9516,-4.758 -1.17728,-5.77012 -12.29234,-5.84411 l -9.57003,-0.0637 -2.78423,8.25 -2.78423,8.25 7.1812,-0.006 c 3.94965,-0.003 8.78177,-0.45022 10.73804,-0.99367 z m 95.51458,40.42782 C 747.70714,505.56429 747,504.07057 747,503.1092 c 0,-2.00766 17.25845,-52.74423 19.67015,-57.82652 2.7852,-5.86937 4.70671,-6.28268 29.20876,-6.28268 18.08696,0 22.2407,0.26246 23.46064,1.48241 1.79639,1.79639 1.16452,4.75032 -1.54072,7.20283 -1.7232,1.5622 -4.44554,1.88434 -19.56144,2.31476 l -17.55964,0.5 -2.77007,8.25 -2.77007,8.25 h 15.2312 C 806.14295,467 808,467.44716 808,471.24545 c 0,1.015 -1.10455,2.95 -2.45455,4.3 C 803.1445,477.94641 802.74252,478 787.1348,478 h -15.95611 l -3.01844,9 -3.01845,9 h 16.49484 c 9.45797,0 17.32002,0.44162 18.4291,1.03518 2.7766,1.48599 2.3854,4.66753 -0.98882,8.04174 L 796.15385,508 h -23.0055 c -19.58075,0 -23.23943,-0.23393 -24.57692,-1.57143 z m 332.99997,0 c -0.8643,-0.86428 -1.5714,-2.358 -1.5714,-3.31937 0,-2.00766 17.2584,-52.74423 19.6701,-57.82652 2.7852,-5.86937 4.7068,-6.28268 29.2088,-6.28268 18.087,0 22.2407,0.26246 23.4607,1.48241 1.7963,1.79639 1.1645,4.75032 -1.5408,7.20283 -1.7232,1.5622 -4.4455,1.88434 -19.5614,2.31476 l -17.5597,0.5 -2.77,8.25 -2.7701,8.25 h 15.2312 c 15.7741,0 17.6312,0.44716 17.6312,4.24545 0,1.015 -1.1045,2.95 -2.4545,4.3 -2.401,2.40096 -2.803,2.45455 -18.4107,2.45455 h -15.9561 l -3.0185,9 -3.0184,9 h 16.4948 c 9.458,0 17.3201,0.44162 18.4291,1.03518 2.7766,1.48599 2.3854,4.66753 -0.9888,8.04174 L 1129.1538,508 h -23.0054 c -19.5808,0 -23.2395,-0.23393 -24.577,-1.57143 z m 135,0 c -0.8643,-0.86428 -1.5714,-2.358 -1.5714,-3.31937 0,-2.00766 17.2584,-52.74423 19.6701,-57.82652 2.7852,-5.86937 4.7068,-6.28268 29.2088,-6.28268 18.087,0 22.2407,0.26246 23.4607,1.48241 1.7963,1.79639 1.1645,4.75032 -1.5408,7.20283 -1.7232,1.5622 -4.4455,1.88434 -19.5614,2.31476 l -17.5597,0.5 -2.77,8.25 -2.7701,8.25 h 15.2312 c 15.7741,0 17.6312,0.44716 17.6312,4.24545 0,1.015 -1.1045,2.95 -2.4545,4.3 -2.401,2.40096 -2.803,2.45455 -18.4107,2.45455 h -15.9561 l -3.0185,9 -3.0184,9 h 16.4948 c 9.458,0 17.3201,0.44162 18.4291,1.03518 2.7766,1.48599 2.3854,4.66753 -0.9888,8.04174 L 1264.1538,508 h -23.0054 c -19.5808,0 -23.2395,-0.23393 -24.577,-1.57143 z m 177,0 c -0.8643,-0.86428 -1.5714,-2.358 -1.5714,-3.31937 0,-2.00766 17.2584,-52.74423 19.6701,-57.82652 2.7852,-5.86937 4.7068,-6.28268 29.2088,-6.28268 18.087,0 22.2407,0.26246 23.4607,1.48241 1.7963,1.79639 1.1645,4.75032 -1.5408,7.20283 -1.7232,1.5622 -4.4455,1.88434 -19.5614,2.31476 l -17.5597,0.5 -2.77,8.25 -2.7701,8.25 h 15.2312 c 15.7741,0 17.6312,0.44716 17.6312,4.24545 0,1.015 -1.1045,2.95 -2.4545,4.3 -2.401,2.40096 -2.803,2.45455 -18.4107,2.45455 h -15.9561 l -3.0185,9 -3.0184,9 h 16.4948 c 9.458,0 17.3201,0.44162 18.4291,1.03518 2.7766,1.48599 2.3854,4.66753 -0.9888,8.04174 L 1441.1538,508 h -23.0054 c -19.5808,0 -23.2395,-0.23393 -24.577,-1.57143 z"
         style="fill:#E1E1E1;opacity:0"
         id="path5"
         inkscape:label="path5" />
    </g>
  </g>
</svg>
